name Walk5.mot
datacolumns 19
datarows 15
range 1.82100000 1.83500000
endheader

                time	   L_ground_force_vx	   L_ground_force_vy	   L_ground_force_vz	   L_ground_force_px	   L_ground_force_py	   L_ground_force_pz	   R_ground_force_vx	   R_ground_force_vy	   R_ground_force_vz	   R_ground_force_px	   R_ground_force_py	   R_ground_force_pz	   L_ground_torque_x	   L_ground_torque_y	   L_ground_torque_z	   R_ground_torque_x	   R_ground_torque_y	   R_ground_torque_z	
          1.82100000	          0.00000000	          0.00000000	          0.00000000	          0.00000000	          0.00000000	          0.00000000	          0.00000000	          0.00000000	          0.00000000	          0.00000000	          0.00000000	          0.00000000	          0.00000000	          0.00000000	          0.00000000	          0.00000000	          0.00000000	          0.00000000	
          1.82200000	          0.00000000	          0.00000000	          0.00000000	          0.00000000	          0.00000000	          0.00000000	          0.00000000	          0.00000000	          0.00000000	          0.00000000	          0.00000000	          0.00000000	          0.00000000	          0.00000000	          0.00000000	          0.00000000	          0.00000000	          0.00000000	
          1.82300000	          5.87747992	         16.37743206	          0.14159051	         -0.46640888	          0.00000000	         -0.00543492	          0.00000000	          0.00000000	          0.00000000	          0.00000000	          0.00000000	          0.00000000	          0.00000000	         -0.12888118	          0.00000000	          0.00000000	          0.00000000	          0.00000000	
          1.82400000	          8.75332379	         25.55729433	          0.13015915	         -0.46574485	          0.00000000	         -0.00782088	          0.00000000	          0.00000000	          0.00000000	          0.00000000	          0.00000000	          0.00000000	          0.00000000	         -0.16689697	          0.00000000	          0.00000000	          0.00000000	          0.00000000	
          1.82500000	         11.48137691	         35.55667327	          0.05838792	         -0.46526338	          0.00000000	         -0.01036087	          0.00000000	          0.00000000	          0.00000000	          0.00000000	          0.00000000	          0.00000000	          0.00000000	         -0.18295672	          0.00000000	          0.00000000	          0.00000000	          0.00000000	
          1.82600000	         14.14313789	         46.92114484	         -0.04702167	         -0.46494766	          0.00000000	         -0.01252637	          0.00000000	          0.00000000	          0.00000000	          0.00000000	          0.00000000	          0.00000000	          0.00000000	         -0.18611796	          0.00000000	          0.00000000	          0.00000000	          0.00000000	
          1.82700000	         16.87826792	         60.14315861	         -0.15297609	         -0.46463389	          0.00000000	         -0.01392136	          0.00000000	          0.00000000	          0.00000000	          0.00000000	          0.00000000	          0.00000000	          0.00000000	         -0.18961537	          0.00000000	          0.00000000	          0.00000000	          0.00000000	
          1.82800000	         19.80360004	         75.38864256	         -0.23257420	         -0.46420898	          0.00000000	         -0.01447162	          0.00000000	          0.00000000	          0.00000000	          0.00000000	          0.00000000	          0.00000000	          0.00000000	         -0.20480889	          0.00000000	          0.00000000	          0.00000000	          0.00000000	
          1.82900000	         22.95930335	         92.34833262	         -0.27346134	         -0.46373608	          0.00000000	         -0.01431457	          0.00000000	          0.00000000	          0.00000000	          0.00000000	          0.00000000	          0.00000000	          0.00000000	         -0.23822008	          0.00000000	          0.00000000	          0.00000000	          0.00000000	
          1.83000000	         26.27541152	        110.19593023	         -0.28730635	         -0.46331313	          0.00000000	         -0.01369736	          0.00000000	          0.00000000	          0.00000000	          0.00000000	          0.00000000	          0.00000000	          0.00000000	         -0.28951747	          0.00000000	          0.00000000	          0.00000000	          0.00000000	
          1.83100000	         29.57181022	        127.69824866	         -0.32174488	         -0.46292432	          0.00000000	         -0.01292774	          0.00000000	          0.00000000	          0.00000000	          0.00000000	          0.00000000	          0.00000000	          0.00000000	         -0.34902848	          0.00000000	          0.00000000	          0.00000000	          0.00000000	
          1.83200000	         32.59133021	        143.51227394	         -0.45911922	         -0.46248076	          0.00000000	         -0.01227551	          0.00000000	          0.00000000	          0.00000000	          0.00000000	          0.00000000	          0.00000000	          0.00000000	         -0.40006759	          0.00000000	          0.00000000	          0.00000000	          0.00000000	
          1.83300000	         35.04900487	        156.56936331	         -0.78296012	         -0.46194262	          0.00000000	         -0.01187923	          0.00000000	          0.00000000	          0.00000000	          0.00000000	          0.00000000	          0.00000000	          0.00000000	         -0.42834294	          0.00000000	          0.00000000	          0.00000000	          0.00000000	
          1.83400000	         36.69815569	        166.34345569	         -1.33293751	         -0.46135020	          0.00000000	         -0.01174659	          0.00000000	          0.00000000	          0.00000000	          0.00000000	          0.00000000	          0.00000000	          0.00000000	         -0.43177715	          0.00000000	          0.00000000	          0.00000000	          0.00000000	
          1.83500000	         37.39925341	        172.87181368	         -2.09044563	         -0.46076997	          0.00000000	         -0.01179236	          0.00000000	          0.00000000	          0.00000000	          0.00000000	          0.00000000	          0.00000000	          0.00000000	         -0.42211130	          0.00000000	          0.00000000	          0.00000000	          0.00000000	
